<mxfile host="app.diagrams.net" modified="2024-07-01T15:08:10.556Z" agent="Mozilla/5.0 (Windows NT 10.0; Win64; x64) AppleWebKit/537.36 (KHTML, like Gecko) Chrome/126.0.0.0 Safari/537.36" etag="dXkt90zaaRiLjPw5ih30" version="24.6.4" type="device">
  <diagram name="Page-1" id="aI-DjRhg09uV1WchbtRv">
    <mxGraphModel dx="880" dy="434" grid="1" gridSize="10" guides="1" tooltips="1" connect="1" arrows="1" fold="1" page="1" pageScale="1" pageWidth="850" pageHeight="1100" math="0" shadow="0">
      <root>
        <mxCell id="0" />
        <mxCell id="1" parent="0" />
        <mxCell id="6N5dlzfmAf-vCwhbgvFv-3" style="edgeStyle=orthogonalEdgeStyle;rounded=0;orthogonalLoop=1;jettySize=auto;html=1;entryX=0;entryY=0.5;entryDx=0;entryDy=0;" edge="1" parent="1" source="6N5dlzfmAf-vCwhbgvFv-1" target="6N5dlzfmAf-vCwhbgvFv-2">
          <mxGeometry relative="1" as="geometry" />
        </mxCell>
        <mxCell id="6N5dlzfmAf-vCwhbgvFv-1" value="&lt;b&gt;&lt;font style=&quot;font-size: 14px;&quot;&gt;load_data.ipynb&lt;/font&gt;&lt;/b&gt;" style="ellipse;whiteSpace=wrap;html=1;" vertex="1" parent="1">
          <mxGeometry x="100" y="50" width="190" height="110" as="geometry" />
        </mxCell>
        <mxCell id="6N5dlzfmAf-vCwhbgvFv-5" style="edgeStyle=orthogonalEdgeStyle;rounded=0;orthogonalLoop=1;jettySize=auto;html=1;" edge="1" parent="1" source="6N5dlzfmAf-vCwhbgvFv-2" target="6N5dlzfmAf-vCwhbgvFv-4">
          <mxGeometry relative="1" as="geometry" />
        </mxCell>
        <mxCell id="6N5dlzfmAf-vCwhbgvFv-2" value="&lt;b&gt;&lt;font style=&quot;font-size: 14px;&quot;&gt;change_format.ipynb&lt;/font&gt;&lt;/b&gt;" style="ellipse;whiteSpace=wrap;html=1;" vertex="1" parent="1">
          <mxGeometry x="530" y="50" width="190" height="110" as="geometry" />
        </mxCell>
        <mxCell id="6N5dlzfmAf-vCwhbgvFv-4" value="&lt;b&gt;&lt;font style=&quot;font-size: 14px;&quot;&gt;eda.ipynb&lt;/font&gt;&lt;/b&gt;" style="ellipse;whiteSpace=wrap;html=1;" vertex="1" parent="1">
          <mxGeometry x="530" y="280" width="190" height="110" as="geometry" />
        </mxCell>
      </root>
    </mxGraphModel>
  </diagram>
</mxfile>
